<?xml version="1.0" encoding="UTF-8"?>
<!DOCTYPE svg PUBLIC "-//W3C//DTD SVG 1.1//EN" "http://www.w3.org/Graphics/SVG/1.1/DTD/svg11.dtd">
<!-- Creator: CorelDRAW 2020 (64-Bit) -->
<svg xmlns="http://www.w3.org/2000/svg" xml:space="preserve" width="112px" height="70px" version="1.1" style="shape-rendering:geometricPrecision; text-rendering:geometricPrecision; image-rendering:optimizeQuality; fill-rule:evenodd; clip-rule:evenodd"
viewBox="0 0 7.69 4.8"
 xmlns:xlink="http://www.w3.org/1999/xlink"
 xmlns:xodm="http://www.corel.com/coreldraw/odm/2003">
 <defs>
  <style type="text/css">
   <![CDATA[
    .fil3 {fill:none}
    .fil5 {fill:none;fill-rule:nonzero}
    .fil6 {fill:#FEFEFE}
    .fil0 {fill:#C4D20E}
    .fil2 {fill:#A2B821}
    .fil1 {fill:#ABC200}
    .fil4 {fill:#535759;fill-rule:nonzero}
    .fil8 {fill:#484C4F;fill-rule:nonzero}
    .fil7 {fill:#A2B821;fill-opacity:0.501961}
   ]]>
  </style>
     <clipPath id="id0">
      <path d="M0.92 1.29l0 1.28c0,0 0,0.01 0.01,0.01 0,0.01 0.01,0.01 0.01,0l0.99 -0.38c0.3,-0.11 0.46,-0.26 0.46,-0.6 0,-0.04 0,-0.27 0,-0.32 0,-0.21 -0.34,-0.32 -0.72,-0.32 -0.41,0 -0.75,0.11 -0.75,0.33z"/>
     </clipPath>
       <mask id="id1">
  <linearGradient id="id2" gradientUnits="userSpaceOnUse" x1="1.92" y1="2.36" x2="-0.01" y2="2.08">
   <stop offset="0" style="stop-opacity:1; stop-color:white"/>
   <stop offset="1" style="stop-opacity:0; stop-color:white"/>
  </linearGradient>
        <rect style="fill:url(#id2)" x="0.86" y="1.54" width="1.68" height="1.1"/>
       </mask>
     <clipPath id="id3" style="clip-rule:nonzero">
      <path d="M2.04 0.85l0 -0.69c0,-0.21 -0.77,-0.22 -0.77,0l0 0.7c0.11,-0.03 0.25,-0.05 0.4,-0.05 0.14,0 0.26,0.02 0.37,0.04z"/>
     </clipPath>
     <clipPath id="id4">
      <path d="M2.98 2.99c0,0.38 -0.22,0.58 -0.51,0.69l-0.49 0.19 0 0.08c0,0.25 -0.14,0.44 -0.36,0.53l-0.75 0.32c-0.01,0 -0.01,0 -0.02,0 0,-0.01 -0.01,-0.01 -0.01,-0.02l0 -0.59c0,-0.3 -0.01,-0.53 0.36,-0.67l1 -0.39c0.34,-0.13 0.59,-0.23 0.63,-0.62 0,-0.01 0,-0.01 0.01,-0.02 0.01,0 0.01,0 0.02,0.01 0.01,0.01 0.03,0.02 0.03,0.03 0.06,0.06 0.09,0.13 0.09,0.22l0 0.24z"/>
     </clipPath>
     <clipPath id="id5">
      <path d="M0.51 2.61c-0.29,0.12 -0.51,0.28 -0.51,0.62l0 0.58c0,0.14 0.08,0.25 0.21,0.3l0.02 0.01c0.01,0 0.02,0 0.02,0 0,0 0.01,-0.01 0.01,-0.01l0 -0.13c0,-0.14 0.08,-0.25 0.21,-0.3l1.35 -0.52c0.38,-0.13 0.57,-0.32 0.57,-0.74 0,0 0,-0.34 0,-0.65 0,-0.01 0,-0.02 -0.01,-0.02 -0.01,0 -0.02,0 -0.02,0.01 -0.08,0.16 -0.32,0.26 -0.48,0.32 -0.46,0.17 -0.91,0.36 -1.37,0.53z"/>
     </clipPath>
     <mask id="id6">
  <linearGradient id="id7" gradientUnits="userSpaceOnUse" x1="0.17" y1="2.1" x2="0.75" y2="3.21">
   <stop offset="0" style="stop-opacity:1; stop-color:white"/>
   <stop offset="1" style="stop-opacity:0; stop-color:white"/>
  </linearGradient>
      <rect style="fill:url(#id7)" x="0.01" y="1.55" width="2.4" height="2.57"/>
     </mask>
     <mask id="id8">
  <linearGradient id="id9" gradientUnits="userSpaceOnUse" x1="3.37" y1="3.92" x2="2.23" y2="2.89">
   <stop offset="0" style="stop-opacity:1; stop-color:white"/>
   <stop offset="1" style="stop-opacity:0; stop-color:white"/>
  </linearGradient>
      <rect style="fill:url(#id9)" x="0.85" y="2.49" width="2.14" height="2.18"/>
     </mask>
     <mask id="id10">
  <linearGradient id="id11" gradientUnits="userSpaceOnUse" x1="1.7" y1="1.84" x2="2.08" y2="5.1">
   <stop offset="0" style="stop-opacity:1; stop-color:white"/>
   <stop offset="1" style="stop-opacity:0; stop-color:white"/>
  </linearGradient>
      <rect style="fill:url(#id11)" x="0.84" y="3.01" width="1.65" height="1.29"/>
     </mask>
 </defs>
 <g id="Слой_x0020_1">
  <metadata id="CorelCorpID_0Corel-Layer"/>
  <g id="_2137362873456">
   <g>
    <path class="fil0" d="M0.92 1.29l0 1.28c0,0 0,0.01 0.01,0.01 0,0.01 0.01,0.01 0.01,0l0.99 -0.38c0.3,-0.11 0.46,-0.26 0.46,-0.6 0,-0.04 0,-0.27 0,-0.32 0,-0.21 -0.34,-0.32 -0.72,-0.32 -0.41,0 -0.75,0.11 -0.75,0.33z"/>
    <g style="clip-path:url(#id0)">
     <g>
      <path id="1" class="fil1" d="M0.06 4.29c0.04,0.04 0.09,0.08 0.15,0.1l0.05 0.02 0 -0.15c0,-0.13 0.07,-0.24 0.19,-0.29l-0.22 0.07c-0.15,0.06 -0.22,0.18 -0.17,0.25z"/>
      <path class="fil2" style="mask:url(#id1)" d="M0.86 2.04l0 0.6c0.46,-0.19 0.81,-0.32 1.07,-0.42 0.3,-0.13 0.6,-0.18 0.6,-0.45 0,-0.03 0.01,-0.12 0.01,-0.23 0,0.45 -1.24,0.63 -1.68,0.5z"/>
     </g>
    </g>
    <path class="fil3" d="M0.92 1.29l0 1.28c0,0 0,0.01 0.01,0.01 0,0.01 0.01,0.01 0.01,0l0.99 -0.38c0.3,-0.11 0.46,-0.26 0.46,-0.6 0,-0.04 0,-0.27 0,-0.32 0,-0.21 -0.34,-0.32 -0.72,-0.32 -0.41,0 -0.75,0.11 -0.75,0.33z"/>
    <path class="fil4" d="M2.04 0.85l0 -0.69c0,-0.21 -0.77,-0.22 -0.77,0l0 0.7c0.11,-0.03 0.25,-0.05 0.4,-0.05 0.14,0 0.26,0.02 0.37,0.04z"/>
    <g style="clip-path:url(#id3)">
     <g>
      <path id="1" class="fil1" d="M0.06 4.11c0.04,0.04 0.09,0.08 0.15,0.1l0.05 0.02 0 -0.15c0,-0.13 0.07,-0.24 0.19,-0.3l-0.22 0.08c-0.15,0.06 -0.22,0.17 -0.17,0.25z"/>
      <path class="fil1" d="M0.86 1.85l0 0.61c0.46,-0.2 0.81,-0.32 1.07,-0.43 0.3,-0.13 0.6,-0.17 0.6,-0.44 0,-0.03 0.01,-0.13 0.01,-0.23 0,0.44 -1.24,0.63 -1.68,0.49z"/>
     </g>
    </g>
    <path class="fil5" d="M2.04 0.85l0 -0.69c0,-0.21 -0.77,-0.22 -0.77,0l0 0.7c0.11,-0.03 0.25,-0.05 0.4,-0.05 0.14,0 0.26,0.02 0.37,0.04z"/>
    <path class="fil0" d="M2.98 2.99c0,0.38 -0.22,0.58 -0.51,0.69l-0.49 0.19 0 0.08c0,0.25 -0.14,0.44 -0.36,0.53l-0.75 0.32c-0.01,0 -0.01,0 -0.02,0 0,-0.01 -0.01,-0.01 -0.01,-0.02l0 -0.59c0,-0.3 -0.01,-0.53 0.36,-0.67l1 -0.39c0.34,-0.13 0.59,-0.23 0.63,-0.62 0,-0.01 0,-0.01 0.01,-0.02 0.01,0 0.01,0 0.02,0.01 0.01,0.01 0.03,0.02 0.03,0.03 0.06,0.06 0.09,0.13 0.09,0.22l0 0.24z"/>
    <g style="clip-path:url(#id4)">
     <g>
      <path id="1" class="fil1" d="M0.06 4.01c0.04,0.05 0.09,0.09 0.15,0.11l0.05 0.02 0 -0.15c0,-0.13 0.07,-0.24 0.19,-0.3l-0.22 0.08c-0.15,0.05 -0.22,0.17 -0.17,0.24z"/>
      <path class="fil1" d="M0.86 1.76l0 0.61c0.46,-0.2 0.81,-0.32 1.07,-0.43 0.3,-0.13 0.6,-0.17 0.6,-0.44 0,-0.04 0.01,-0.13 0.01,-0.23 0,0.44 -1.24,0.63 -1.68,0.49z"/>
     </g>
    </g>
    <path class="fil3" d="M2.98 2.99c0,0.38 -0.22,0.58 -0.51,0.69l-0.49 0.19 0 0.08c0,0.25 -0.14,0.44 -0.36,0.53l-0.75 0.32c-0.01,0 -0.01,0 -0.02,0 0,-0.01 -0.01,-0.01 -0.01,-0.02l0 -0.59c0,-0.3 -0.01,-0.53 0.36,-0.67l1 -0.39c0.34,-0.13 0.59,-0.23 0.63,-0.62 0,-0.01 0,-0.01 0.01,-0.02 0.01,0 0.01,0 0.02,0.01 0.01,0.01 0.03,0.02 0.03,0.03 0.06,0.06 0.09,0.13 0.09,0.22l0 0.24z"/>
    <path class="fil0" d="M0.51 2.61c-0.29,0.12 -0.51,0.28 -0.51,0.62l0 0.58c0,0.14 0.08,0.25 0.21,0.3l0.02 0.01c0.01,0 0.02,0 0.02,0 0,0 0.01,-0.01 0.01,-0.01l0 -0.13c0,-0.14 0.08,-0.25 0.21,-0.3l1.35 -0.52c0.38,-0.13 0.57,-0.32 0.57,-0.74 0,0 0,-0.34 0,-0.65 0,-0.01 0,-0.02 -0.01,-0.02 -0.01,0 -0.02,0 -0.02,0.01 -0.08,0.16 -0.32,0.26 -0.48,0.32 -0.46,0.17 -0.91,0.36 -1.37,0.53z"/>
    <g style="clip-path:url(#id5)">
     <g>
      <path id="1" class="fil2" d="M0.06 4.01c0.04,0.05 0.09,0.09 0.15,0.11l0.05 0.02 0 -0.15c0,-0.13 0.07,-0.24 0.19,-0.3l-0.22 0.08c-0.15,0.05 -0.22,0.17 -0.17,0.24z"/>
      <path class="fil1" d="M0.86 1.76l0 0.61c0.46,-0.2 0.81,-0.32 1.07,-0.43 0.3,-0.13 0.6,-0.17 0.6,-0.44 0,-0.04 0.01,-0.13 0.01,-0.23 0,0.44 -1.24,0.63 -1.68,0.49z"/>
     </g>
    </g>
    <path class="fil3" d="M0.51 2.61c-0.29,0.12 -0.51,0.28 -0.51,0.62l0 0.58c0,0.14 0.08,0.25 0.21,0.3l0.02 0.01c0.01,0 0.02,0 0.02,0 0,0 0.01,-0.01 0.01,-0.01l0 -0.13c0,-0.14 0.08,-0.25 0.21,-0.3l1.35 -0.52c0.38,-0.13 0.57,-0.32 0.57,-0.74 0,0 0,-0.34 0,-0.65 0,-0.01 0,-0.02 -0.01,-0.02 -0.01,0 -0.02,0 -0.02,0.01 -0.08,0.16 -0.32,0.26 -0.48,0.32 -0.46,0.17 -0.91,0.36 -1.37,0.53z"/>
    <path class="fil6" style="mask:url(#id6)" d="M1.59 2.18c-0.38,0.15 -0.87,0.33 -1.1,0.42 -0.27,0.12 -0.48,0.28 -0.48,0.62l0 0.58c0,0.13 0.06,0.27 0.24,0.32 -0.02,-0.03 -0.06,-0.34 0.21,-0.45l0 -0.47c0,-0.34 0.2,-0.51 0.48,-0.63 0.23,-0.08 0.38,-0.14 0.77,-0.29 0.12,-0.04 0.23,-0.08 0.33,-0.12 0.25,-0.1 0.37,-0.24 0.37,-0.61 0,0.18 -0.07,0.27 -0.13,0.32 -0.08,0.06 -0.18,0.12 -0.35,0.19 -0.1,0.04 -0.21,0.08 -0.34,0.12z"/>
    <path class="fil6" style="mask:url(#id8)" d="M2.99 2.98c0,0.39 -0.22,0.59 -0.52,0.7l-0.32 0.12c-0.29,0.11 -0.59,0.23 -0.88,0.34 -0.28,0.1 -0.39,0.3 -0.42,0.53 0.01,-0.25 0.11,-0.45 0.38,-0.58l1.08 -0.42c0.62,-0.24 0.55,-0.62 0.53,-1.18 0.03,0.02 0.06,0.05 0.06,0.06 0.06,0.05 0.09,0.13 0.09,0.21l0 0.22z"/>
    <path class="fil2" d="M1.98 3.87l0 0.08c0,0.04 0,0.07 -0.01,0.1l-0.72 0.22c-0.24,0.07 -0.39,0.27 -0.4,0.53l0 -0.08c0,-0.25 0.14,-0.46 0.38,-0.56l0.75 -0.29z"/>
    <path class="fil2" style="mask:url(#id10)" d="M0.84 4.3c0,-0.31 0.02,-0.46 0.03,-0.47 0.04,-0.13 0.12,-0.24 0.33,-0.31l1 -0.38c0.11,-0.04 0.21,-0.08 0.29,-0.13 -0.07,0.22 -0.24,0.35 -0.52,0.45 -0.16,0.06 -0.31,0.12 -0.47,0.17 -0.52,0.2 -0.57,0.22 -0.66,0.67z"/>
    <path class="fil7" d="M0.96 1.27l0 1.15c0.13,-0.05 0.24,-0.09 0.35,-0.13l0 -1.07c0,-0.12 0.12,-0.21 0.29,-0.26l0 0c-0.33,0.02 -0.64,0.12 -0.64,0.31z"/>
    <path class="fil8" d="M1.98 0.08c-0.18,-0.12 -0.72,-0.09 -0.72,0.09l0 0.68c0.28,-0.06 0.63,-0.03 0.78,0 -0.06,-0.09 -0.3,-0.16 -0.53,-0.16l0 -0.45c0,-0.12 0.25,-0.18 0.47,-0.16z"/>
   </g>
   <path class="fil4" d="M4.7 2.01l-0.29 0.7c-0.01,0.03 -0.03,0.04 -0.05,0.04l-0.01 0c-0.03,0 -0.05,-0.01 -0.06,-0.04l-0.28 -0.7 -0.01 0 0 1.08c0,0.03 -0.03,0.06 -0.06,0.06l-0.07 0c-0.03,0 -0.06,-0.03 -0.06,-0.06l0 -1.53c0,-0.03 0.03,-0.06 0.06,-0.06l0.09 0c0.02,0 0.04,0.01 0.05,0.04l0.34 0.88 0 0 0.34 -0.88c0.01,-0.03 0.03,-0.04 0.05,-0.04l0.1 0c0.03,0 0.06,0.03 0.06,0.06l0 1.53c0,0.03 -0.03,0.06 -0.06,0.06l-0.07 0c-0.04,0 -0.06,-0.03 -0.06,-0.06l0 -1.08 -0.01 0z"/>
   <path class="fil4" d="M5.14 1.63l0 -0.07c0,-0.03 0.02,-0.06 0.05,-0.06l0.07 0c0.04,0 0.06,0.03 0.06,0.06l0 0.07c0,0.03 -0.02,0.06 -0.06,0.06l-0.07 0c-0.03,0 -0.05,-0.03 -0.05,-0.06zm0 1.46l0 -1.05c0,-0.04 0.02,-0.06 0.05,-0.06l0.07 0c0.04,0 0.06,0.02 0.06,0.06l0 1.05c0,0.03 -0.02,0.06 -0.06,0.06l-0.07 0c-0.03,0 -0.05,-0.03 -0.05,-0.06z"/>
   <path class="fil4" d="M5.74 2.11c0.03,-0.06 0.07,-0.1 0.11,-0.12 0.03,-0.01 0.06,-0.02 0.11,-0.03 0.01,0 0.03,0.01 0.04,0.02 0.01,0.01 0.02,0.03 0.02,0.04l0 0.1c0,0.02 -0.01,0.03 -0.02,0.05 -0.01,0.01 -0.02,0.01 -0.04,0.01 0,0 0,0 -0.01,0 -0.07,0 -0.12,0.02 -0.15,0.05 -0.04,0.03 -0.06,0.09 -0.06,0.17l0 0.69c0,0.03 -0.03,0.06 -0.06,0.06l-0.07 0c-0.03,0 -0.06,-0.03 -0.06,-0.06l0 -1.05c0,-0.04 0.03,-0.06 0.06,-0.06l0.07 0c0.03,0 0.06,0.02 0.06,0.06l0 0.07 0 0z"/>
   <path class="fil4" d="M6.62 3.05c-0.03,0.04 -0.07,0.07 -0.11,0.09 -0.04,0.02 -0.08,0.03 -0.13,0.03 -0.05,0 -0.09,-0.01 -0.13,-0.03 -0.03,-0.02 -0.06,-0.05 -0.08,-0.08 -0.01,-0.04 -0.03,-0.07 -0.04,-0.11 -0.01,-0.04 -0.01,-0.08 -0.01,-0.13 0,-0.04 0,-0.09 0.01,-0.13 0.01,-0.04 0.03,-0.08 0.05,-0.12 0.03,-0.04 0.06,-0.07 0.1,-0.09 0.04,-0.02 0.09,-0.03 0.16,-0.03l0.18 0 0 -0.16c0,-0.05 -0.01,-0.08 -0.03,-0.11 -0.02,-0.03 -0.06,-0.04 -0.12,-0.04 -0.03,0 -0.06,0.01 -0.09,0.03 -0.02,0.01 -0.03,0.03 -0.04,0.05 -0.02,0.02 -0.05,0.03 -0.07,0.03l-0.07 -0.02c-0.02,-0.01 -0.03,-0.02 -0.04,-0.03 0,-0.02 0,-0.04 0,-0.05 0.02,-0.05 0.06,-0.09 0.1,-0.12 0.06,-0.05 0.13,-0.07 0.22,-0.07 0.11,0 0.19,0.03 0.25,0.07 0.05,0.05 0.08,0.14 0.08,0.26l0 0.8c0,0.03 -0.02,0.06 -0.06,0.06l-0.07 0c-0.03,0 -0.06,-0.03 -0.06,-0.06l0 -0.04 0 0zm0 -0.44l-0.13 0c-0.05,0 -0.1,0.01 -0.13,0.04 -0.04,0.03 -0.06,0.09 -0.06,0.16 0,0.06 0.01,0.1 0.04,0.13 0.02,0.03 0.06,0.04 0.11,0.04 0.06,0 0.1,-0.01 0.13,-0.05 0.03,-0.03 0.04,-0.08 0.04,-0.13l0 -0.19z"/>
   <path class="fil4" d="M7.18 2.09l0.01 0c0.05,-0.08 0.13,-0.12 0.24,-0.12 0.08,0 0.15,0.02 0.19,0.08 0.05,0.06 0.07,0.13 0.07,0.22l0 0.82c0,0.03 -0.03,0.06 -0.06,0.06l-0.07 0c-0.03,0 -0.06,-0.03 -0.06,-0.06l0 -0.77c0,-0.05 -0.01,-0.09 -0.04,-0.12 -0.02,-0.03 -0.06,-0.04 -0.11,-0.04 -0.05,0 -0.09,0.01 -0.12,0.05 -0.03,0.03 -0.05,0.07 -0.05,0.13l0 0.75c0,0.03 -0.03,0.06 -0.06,0.06l-0.07 0c-0.03,0 -0.06,-0.03 -0.06,-0.06l0 -1.05c0,-0.04 0.03,-0.06 0.06,-0.06l0.07 0c0.04,0 0.06,0.02 0.06,0.06l0 0.05z"/>
  </g>
 </g>
</svg>
